<svg width="207" height="159" viewBox="0 0 207 159" fill="none" xmlns="http://www.w3.org/2000/svg">
<path d="M160.553 155.058C166.939 141.56 169.23 126.444 166.932 111.686C164.655 96.7231 157.444 82.663 146.963 71.8682C137.265 61.8983 123.454 52.9146 108.941 53.624C101.953 53.9854 95.349 56.6617 90.2229 61.4752C85.3224 66.1048 81.8356 72.2858 80.3752 78.8808C77.3425 92.7627 83.5649 107.177 93.96 116.391C99.2742 121.071 105.773 125.087 113.01 125.537C120.86 126.05 127.44 121.179 132.58 115.829C142.26 105.729 147.975 91.9149 148.452 77.9372C148.95 63.7548 143.611 50.0101 134.182 39.4469C124.858 29.0601 111.988 22.2001 98.0941 20.9039C84.7367 19.6212 70.9831 23.4286 59.9447 31.0305C57.2786 32.8267 54.8246 34.9757 52.526 37.2232C50.4532 39.287 53.4928 42.7423 55.615 40.6008C64.2024 31.8795 76.0058 26.5073 88.1603 25.3914C100.774 24.2396 113.188 27.8671 123.242 35.5565C133.346 43.1681 140.624 54.5457 142.947 67.0305C145.271 79.5153 142.583 92.8532 136.01 103.725C132.685 109.136 128.307 114.316 123.102 117.88C120.309 119.705 117.197 121 113.851 120.948C110.759 120.839 107.751 119.911 104.961 118.467C93.878 112.741 85.1881 101.012 84.1918 88.4977C83.2596 76.5689 90.0494 63.9814 101.494 59.6897C113.8 55.0723 127.453 61.5572 137.02 69.1554C147.937 77.719 156.175 89.8155 160.201 103.054C164.198 116.165 164.109 130.389 160.116 143.552C159.138 146.638 158.034 149.752 156.618 152.669C156.133 153.778 156.162 155.105 157.328 155.845C158.31 156.359 159.99 156.117 160.553 155.058Z" fill="black"/>
<path d="M23.6025 92.8683L2.15194 72.0326C0.963457 70.8782 0.93584 68.9789 2.09025 67.7904L29.3874 39.6877C29.915 39.1445 30.6285 38.8209 31.3847 38.7819L53.0668 37.663C54.7198 37.5777 56.1296 38.8473 56.2172 40.5001L57.3093 61.0921C57.3536 61.9266 57.0477 62.7418 56.4654 63.3412L27.8447 92.8066C26.6903 93.9951 24.791 94.0227 23.6025 92.8683Z" fill="black"/>
<path d="M17.7354 66.2683L41.5579 65.9219M29.8834 53.7617L30.2298 77.5843" stroke="white" stroke-width="3" stroke-linecap="round"/>
<circle cx="50" cy="44.2363" r="2" fill="white"/>
</svg>
