<svg width="115" height="108" viewBox="0 0 115 108" fill="none" xmlns="http://www.w3.org/2000/svg">
<path d="M57.0001 21L52.5216 17.9792L55.7873 13.1377L60.2658 16.1584L57.0001 21Z" fill="#DCBCFA"/>
<path d="M46.0001 44L50.2569 40.6742L54.468 46.0642L50.2112 49.39L46.0001 44Z" fill="#480CA7" fill-opacity="0.9"/>
<path d="M75.0001 91L70.679 90.1601L71.4117 86.3906L75.7328 87.2306L75.0001 91Z" fill="#4BC8EF" fill-opacity="0.65"/>
<path d="M3.00008 23L12.8745 28.701L9.9545 33.7586L0.0800781 28.0576L3.00008 23Z" fill="#F54721"/>
<path d="M6.00008 0L23.3067 1.819L22.5918 8.62153L5.2851 6.80253L6.00008 0Z" fill="#BA3E03" fill-opacity="0.45"/>
<path d="M66.0001 106L58.7105 107.285L57.8701 102.519L65.1596 101.234L66.0001 106Z" fill="#FFED36"/>
<path d="M69.4301 93.715C69.4301 94.6622 68.6622 95.43 67.7151 95.43C66.7679 95.43 66.0001 94.6622 66.0001 93.715C66.0001 92.7678 66.7679 92 67.7151 92C68.6622 92 69.4301 92.7678 69.4301 93.715Z" fill="#FF21FB" fill-opacity="0.85"/>
<path d="M101.43 4.715C101.43 5.66217 100.662 6.43 99.7151 6.43C98.7679 6.43 98.0001 5.66217 98.0001 4.715C98.0001 3.76783 98.7679 3 99.7151 3C100.662 3 101.43 3.76783 101.43 4.715Z" fill="#DCBCFA" fill-opacity="0.75"/>
<path d="M15.4301 46.715C15.4301 48.7667 13.7668 50.43 11.7151 50.43C9.66334 50.43 8.00008 48.7667 8.00008 46.715C8.00008 44.6633 9.66334 43 11.7151 43C13.7668 43 15.4301 44.6633 15.4301 46.715Z" fill="#F62584"/>
<path d="M6.22591 84.5391L13.6943 88.6789L6.37494 93.0769L6.22591 84.5391Z" fill="#DCBCFA"/>
<path d="M111.576 11.8305L109.321 9.2369L111.915 6.98233L114.17 9.57592L111.576 11.8305Z" fill="#03A3F5" fill-opacity="0.9"/>
<path d="M18.9661 51.5783L17.6673 58.2602L12.53 53.7944L18.9661 51.5783Z" fill="#F54721" fill-opacity="0.75"/>
<path d="M103.295 20.2364L100.553 22.326L100.354 25.7681L98.2645 23.0257L94.8224 22.8268L97.5648 20.7372L97.7636 17.2952L99.8532 20.0376L103.295 20.2364Z" fill="#FF21FB" fill-opacity="0.85"/>
</svg>
